<?xml version="1.0" encoding="UTF-8"?>
<svg width="120px" height="30px" viewBox="0 0 120 30" xmlns="http://www.w3.org/2000/svg" xmlns:xlink="http://www.w3.org/1999/xlink" version="1.1">
 <!-- Generated by Pixelmator Pro 2.0.8 -->
 <defs>
  <text id="string" transform="matrix(1.0 0.0 0.0 1.0 56.0 2.0)" y="24.0" x="1.0" text-decoration="none" font-family="BanglaSangamMN-Bold, Bangla Sangam MN" font-size="30" fill="#ed771d">C</text>
 </defs>
 <use id="C" xlink:href="#string"/>
 <defs>
  <text id="string-1" transform="matrix(-1.0 1.2246467991473532e-16 -1.2246467991473532e-16 -1.0 112.0 29.0)" fill="#ed771d" y="24.0" text-decoration="none" x="1.0" font-size="30" font-family="BanglaSangamMN-Bold, Bangla Sangam MN">V</text>
 </defs>
 <use id="V" xlink:href="#string-1"/>
 <defs>
  <text id="string-2" transform="matrix(1.0 0.0 0.0 1.0 8.0 2.0)" text-decoration="none" font-family="BanglaSangamMN-Bold, Bangla Sangam MN" y="24.0" font-size="30" fill="#ed771d" x="1.0">I</text>
 </defs>
 <use id="I" xlink:href="#string-2"/>
 <defs>
  <text id="string-3" transform="matrix(1.0 0.0 0.0 1.0 10.0 2.0)" text-decoration="none" font-family="BanglaSangamMN-Bold, Bangla Sangam MN" y="24.0" font-size="30" fill="#fbba26" x="1.0">N</text>
 </defs>
 <use id="N" xlink:href="#string-3"/>
 <defs>
  <text id="string-4" transform="matrix(1.0 0.0 0.0 1.0 20.0 2.0)" fill="#ed771d" font-family="BanglaSangamMN-Bold, Bangla Sangam MN" x="1.0" font-size="30" y="24.0" text-decoration="none">T</text>
 </defs>
 <use id="T" xlink:href="#string-4"/>
 <defs>
  <text id="string-5" transform="matrix(1.0 0.0 0.0 1.0 51.0 2.0)" text-decoration="none" font-family="BanglaSangamMN-Bold, Bangla Sangam MN" y="24.0" font-size="30" fill="#fbba26" x="1.0">I</text>
 </defs>
 <use id="I-1" xlink:href="#string-5"/>
 <defs>
  <text id="string-6" transform="matrix(1.0 0.0 0.0 1.0 41.0 2.0)" fill="#ed771d" font-family="BanglaSangamMN-Bold, Bangla Sangam MN" x="1.0" font-size="30" y="24.0" text-decoration="none">L</text>
 </defs>
 <use id="L" xlink:href="#string-6"/>
 <defs>
  <text id="string-7" transform="matrix(1.0 0.0 0.0 1.0 28.0 2.0)" text-decoration="none" font-family="BanglaSangamMN-Bold, Bangla Sangam MN" y="24.0" font-size="30" fill="#fbba26" x="1.0">E</text>
 </defs>
 <use id="E" xlink:href="#string-7"/>
 <defs>
  <text id="string-8" transform="matrix(1.0 0.0 0.0 1.0 20.0 2.0)" fill="#ed771d" font-family="BanglaSangamMN-Bold, Bangla Sangam MN" x="1.0" font-size="30" y="24.0" text-decoration="none">T</text>
 </defs>
 <use id="T-1" xlink:href="#string-8"/>
 <defs>
  <text id="string-9" transform="matrix(1.0 0.0 0.0 1.0 76.0 2.0)" text-decoration="none" font-family="BanglaSangamMN-Bold, Bangla Sangam MN" y="24.0" font-size="30" fill="#fbba26" x="1.0">A</text>
 </defs>
 <use id="A" xlink:href="#string-9"/>
</svg>
