<svg xmlns="http://www.w3.org/2000/svg" xmlns:xlink="http://www.w3.org/1999/xlink" width="120" zoomAndPan="magnify" viewBox="0 0 90 37.5" height="50" preserveAspectRatio="xMidYMid meet" version="1.0"><defs><g/><clipPath id="9b147c9953"><path d="M 0.59375 0 L 89.40625 0 L 89.40625 37.007812 L 0.59375 37.007812 Z M 0.59375 0 " clip-rule="nonzero"/></clipPath><clipPath id="cccd0bab7a"><path d="M 48 5 L 67.203125 5 L 67.203125 15 L 48 15 Z M 48 5 " clip-rule="nonzero"/></clipPath><clipPath id="8231fe9107"><path d="M 47 4 L 67.203125 4 L 67.203125 15 L 47 15 Z M 47 4 " clip-rule="nonzero"/></clipPath><clipPath id="ec230cc2d5"><path d="M 48 22 L 67.203125 22 L 67.203125 32 L 48 32 Z M 48 22 " clip-rule="nonzero"/></clipPath><clipPath id="0ac3e07e38"><path d="M 47 22 L 67.203125 22 L 67.203125 33 L 47 33 Z M 47 22 " clip-rule="nonzero"/></clipPath></defs><g clip-path="url(#9b147c9953)"><path fill="#ffffff" d="M 0.59375 0 L 89.40625 0 L 89.40625 44.40625 L 0.59375 44.40625 Z M 0.59375 0 " fill-opacity="1" fill-rule="nonzero"/><path fill="#ffffff" d="M 0.59375 0 L 89.40625 0 L 89.40625 37.007812 L 0.59375 37.007812 Z M 0.59375 0 " fill-opacity="1" fill-rule="nonzero"/><path fill="#fdfdfd" d="M 0.59375 0 L 89.40625 0 L 89.40625 37.007812 L 0.59375 37.007812 Z M 0.59375 0 " fill-opacity="1" fill-rule="nonzero"/></g><g clip-path="url(#cccd0bab7a)"><path fill="#ed771d" d="M 48.367188 8.28125 C 48.367188 8.28125 57.4375 0 67.167969 10.089844 L 63.144531 14.230469 C 63.144531 14.230469 59.117188 4.363281 48.367188 8.28125 " fill-opacity="1" fill-rule="nonzero"/></g><g clip-path="url(#8231fe9107)"><path stroke-linecap="butt" transform="matrix(0.00309369, 0, 0, -0.0030808, 25.16506, 49.311297)" fill="none" stroke-linejoin="miter" d="M 7499.819349 13317.981211 C 7499.819349 13317.981211 10431.692958 16005.999847 13576.954438 12730.928085 L 12276.424802 11386.918767 C 12276.424802 11386.918767 10974.632515 14589.71833 7499.819349 13317.981211 Z M 7499.819349 13317.981211 " stroke="#231f20" stroke-width="14.3" stroke-opacity="1" stroke-miterlimit="10"/></g><g clip-path="url(#ec230cc2d5)"><path fill="#ed771d" d="M 48.324219 28.722656 C 48.324219 28.722656 57.390625 37.007812 67.125 26.917969 L 63.097656 22.777344 C 63.097656 22.777344 59.074219 32.644531 48.324219 28.722656 " fill-opacity="1" fill-rule="nonzero"/></g><g clip-path="url(#0ac3e07e38)"><path stroke-linecap="butt" transform="matrix(0.00309369, 0, 0, -0.0030808, 25.16506, 49.311297)" fill="none" stroke-linejoin="miter" d="M 7485.930198 6682.886155 C 7485.930198 6682.886155 10416.541156 3993.599586 13563.065287 7268.671348 L 12261.273 8612.680666 C 12261.273 8612.680666 10960.743363 5409.881103 7485.930198 6682.886155 Z M 7485.930198 6682.886155 " stroke="#231f20" stroke-width="14.3" stroke-opacity="1" stroke-miterlimit="10"/></g><path fill="#fbba26" d="M 45.003906 12.820312 C 45.003906 12.820312 47.835938 7.621094 54.339844 8.636719 C 54.339844 8.636719 59.871094 9.867188 61.816406 14.496094 C 61.816406 14.496094 57.304688 8.546875 51.285156 13.4375 C 51.285156 13.4375 46.242188 18.0625 51.152344 23.347656 C 51.152344 23.347656 56.460938 28.328125 61.816406 22.554688 C 61.816406 22.554688 59.738281 27.753906 53.410156 28.460938 C 53.410156 28.460938 47.925781 29.078125 45.003906 23.921875 C 45.003906 23.921875 47.925781 28.238281 53.410156 26.742188 C 53.410156 26.742188 46.371094 25.429688 46.15625 18.492188 C 46.15625 18.492188 46.242188 11.410156 53.410156 10.222656 C 53.410156 10.222656 48.410156 8.589844 45.003906 12.820312 " fill-opacity="1" fill-rule="nonzero"/><g fill="#000000" fill-opacity="1"><g transform="translate(2.303533, 22.168196)"><g><path d="M 1.765625 -10.875 L 2.921875 -10.875 L 2.921875 0 L 1.765625 0 Z M 1.765625 -10.875 "/></g></g></g><g fill="#000000" fill-opacity="1"><g transform="translate(6.996574, 22.168196)"><g><path d="M 5.703125 -8.234375 C 6.734375 -8.234375 7.550781 -7.9375 8.15625 -7.34375 C 8.757812 -6.75 9.0625 -5.878906 9.0625 -4.734375 L 9.0625 0 L 7.953125 0 L 7.953125 -4.640625 C 7.953125 -5.484375 7.738281 -6.128906 7.3125 -6.578125 C 6.894531 -7.023438 6.289062 -7.25 5.5 -7.25 C 4.625 -7.25 3.925781 -6.984375 3.40625 -6.453125 C 2.894531 -5.929688 2.640625 -5.210938 2.640625 -4.296875 L 2.640625 0 L 1.546875 0 L 1.546875 -8.171875 L 2.59375 -8.171875 L 2.59375 -6.671875 C 2.894531 -7.171875 3.3125 -7.554688 3.84375 -7.828125 C 4.382812 -8.097656 5.003906 -8.234375 5.703125 -8.234375 Z M 5.703125 -8.234375 "/></g></g></g><g fill="#000000" fill-opacity="1"><g transform="translate(17.517067, 22.168196)"><g><path d="M 5.84375 -0.5 C 5.632812 -0.3125 5.378906 -0.164062 5.078125 -0.0625 C 4.773438 0.03125 4.457031 0.078125 4.125 0.078125 C 3.351562 0.078125 2.757812 -0.128906 2.34375 -0.546875 C 1.925781 -0.960938 1.71875 -1.546875 1.71875 -2.296875 L 1.71875 -7.25 L 0.265625 -7.25 L 0.265625 -8.171875 L 1.71875 -8.171875 L 1.71875 -9.96875 L 2.828125 -9.96875 L 2.828125 -8.171875 L 5.3125 -8.171875 L 5.3125 -7.25 L 2.828125 -7.25 L 2.828125 -2.359375 C 2.828125 -1.867188 2.945312 -1.5 3.1875 -1.25 C 3.4375 -1 3.789062 -0.875 4.25 -0.875 C 4.476562 -0.875 4.695312 -0.910156 4.90625 -0.984375 C 5.113281 -1.054688 5.296875 -1.160156 5.453125 -1.296875 Z M 5.84375 -0.5 "/></g></g></g><g fill="#000000" fill-opacity="1"><g transform="translate(23.826255, 22.168196)"><g><path d="M 8.65625 -3.75 L 1.8125 -3.75 C 1.875 -2.894531 2.203125 -2.207031 2.796875 -1.6875 C 3.390625 -1.164062 4.132812 -0.90625 5.03125 -0.90625 C 5.539062 -0.90625 6.007812 -0.992188 6.4375 -1.171875 C 6.863281 -1.359375 7.234375 -1.625 7.546875 -1.96875 L 8.15625 -1.265625 C 7.800781 -0.828125 7.347656 -0.492188 6.796875 -0.265625 C 6.253906 -0.0351562 5.65625 0.078125 5 0.078125 C 4.164062 0.078125 3.421875 -0.0976562 2.765625 -0.453125 C 2.117188 -0.816406 1.613281 -1.3125 1.25 -1.9375 C 0.894531 -2.570312 0.71875 -3.289062 0.71875 -4.09375 C 0.71875 -4.882812 0.890625 -5.597656 1.234375 -6.234375 C 1.578125 -6.867188 2.050781 -7.359375 2.65625 -7.703125 C 3.269531 -8.054688 3.953125 -8.234375 4.703125 -8.234375 C 5.460938 -8.234375 6.144531 -8.054688 6.75 -7.703125 C 7.351562 -7.359375 7.820312 -6.867188 8.15625 -6.234375 C 8.5 -5.609375 8.671875 -4.894531 8.671875 -4.09375 Z M 4.703125 -7.296875 C 3.921875 -7.296875 3.257812 -7.039062 2.71875 -6.53125 C 2.1875 -6.03125 1.882812 -5.378906 1.8125 -4.578125 L 7.625 -4.578125 C 7.550781 -5.378906 7.242188 -6.03125 6.703125 -6.53125 C 6.171875 -7.039062 5.503906 -7.296875 4.703125 -7.296875 Z M 4.703125 -7.296875 "/></g></g></g><g fill="#000000" fill-opacity="1"><g transform="translate(33.212337, 22.168196)"><g><path d="M 1.546875 -11.53125 L 2.640625 -11.53125 L 2.640625 0 L 1.546875 0 Z M 1.546875 -11.53125 "/></g></g></g><g fill="#000000" fill-opacity="1"><g transform="translate(37.392563, 22.168196)"><g><path d="M 1.546875 -11.53125 L 2.640625 -11.53125 L 2.640625 0 L 1.546875 0 Z M 1.546875 -11.53125 "/></g></g></g><g fill="#000000" fill-opacity="1"><g transform="translate(41.572788, 22.168196)"><g><path d="M 1.546875 -8.171875 L 2.640625 -8.171875 L 2.640625 0 L 1.546875 0 Z M 2.109375 -9.96875 C 1.878906 -9.96875 1.6875 -10.046875 1.53125 -10.203125 C 1.375 -10.359375 1.296875 -10.546875 1.296875 -10.765625 C 1.296875 -10.960938 1.375 -11.140625 1.53125 -11.296875 C 1.6875 -11.453125 1.878906 -11.53125 2.109375 -11.53125 C 2.328125 -11.53125 2.515625 -11.453125 2.671875 -11.296875 C 2.828125 -11.148438 2.90625 -10.976562 2.90625 -10.78125 C 2.90625 -10.550781 2.828125 -10.359375 2.671875 -10.203125 C 2.515625 -10.046875 2.328125 -9.96875 2.109375 -9.96875 Z M 2.109375 -9.96875 "/></g></g></g><g fill="#000000" fill-opacity="1"><g transform="translate(45.751569, 22.168196)"><g/></g></g><g fill="#000000" fill-opacity="1"><g transform="translate(49.823015, 22.168196)"><g/></g></g><g fill="#000000" fill-opacity="1"><g transform="translate(53.894461, 22.168196)"><g/></g></g><g fill="#000000" fill-opacity="1"><g transform="translate(57.965908, 22.168196)"><g/></g></g><g fill="#000000" fill-opacity="1"><g transform="translate(62.037353, 22.168196)"><g><path d="M 4.40625 -8.234375 C 5.46875 -8.234375 6.285156 -7.96875 6.859375 -7.4375 C 7.429688 -6.90625 7.71875 -6.113281 7.71875 -5.0625 L 7.71875 0 L 6.65625 0 L 6.65625 -1.28125 C 6.40625 -0.851562 6.035156 -0.519531 5.546875 -0.28125 C 5.066406 -0.0390625 4.5 0.078125 3.84375 0.078125 C 2.925781 0.078125 2.195312 -0.140625 1.65625 -0.578125 C 1.125 -1.015625 0.859375 -1.585938 0.859375 -2.296875 C 0.859375 -2.992188 1.109375 -3.554688 1.609375 -3.984375 C 2.109375 -4.410156 2.910156 -4.625 4.015625 -4.625 L 6.609375 -4.625 L 6.609375 -5.109375 C 6.609375 -5.816406 6.410156 -6.351562 6.015625 -6.71875 C 5.617188 -7.09375 5.046875 -7.28125 4.296875 -7.28125 C 3.773438 -7.28125 3.273438 -7.191406 2.796875 -7.015625 C 2.316406 -6.847656 1.90625 -6.613281 1.5625 -6.3125 L 1.078125 -7.140625 C 1.484375 -7.492188 1.976562 -7.765625 2.5625 -7.953125 C 3.144531 -8.140625 3.757812 -8.234375 4.40625 -8.234375 Z M 4.015625 -0.796875 C 4.628906 -0.796875 5.160156 -0.9375 5.609375 -1.21875 C 6.054688 -1.5 6.390625 -1.910156 6.609375 -2.453125 L 6.609375 -3.796875 L 4.046875 -3.796875 C 2.640625 -3.796875 1.9375 -3.304688 1.9375 -2.328125 C 1.9375 -1.847656 2.117188 -1.472656 2.484375 -1.203125 C 2.847656 -0.929688 3.359375 -0.796875 4.015625 -0.796875 Z M 4.015625 -0.796875 "/></g></g></g><g fill="#000000" fill-opacity="1"><g transform="translate(71.205877, 22.168196)"><g><path d="M 11.734375 -8.234375 C 12.765625 -8.234375 13.570312 -7.9375 14.15625 -7.34375 C 14.738281 -6.757812 15.03125 -5.890625 15.03125 -4.734375 L 15.03125 0 L 13.9375 0 L 13.9375 -4.640625 C 13.9375 -5.484375 13.726562 -6.128906 13.3125 -6.578125 C 12.90625 -7.023438 12.328125 -7.25 11.578125 -7.25 C 10.734375 -7.25 10.066406 -6.984375 9.578125 -6.453125 C 9.085938 -5.929688 8.84375 -5.210938 8.84375 -4.296875 L 8.84375 0 L 7.75 0 L 7.75 -4.640625 C 7.75 -5.484375 7.539062 -6.128906 7.125 -6.578125 C 6.71875 -7.023438 6.132812 -7.25 5.375 -7.25 C 4.539062 -7.25 3.875 -6.984375 3.375 -6.453125 C 2.882812 -5.929688 2.640625 -5.210938 2.640625 -4.296875 L 2.640625 0 L 1.546875 0 L 1.546875 -8.171875 L 2.59375 -8.171875 L 2.59375 -6.6875 C 2.882812 -7.1875 3.289062 -7.566406 3.8125 -7.828125 C 4.332031 -8.097656 4.925781 -8.234375 5.59375 -8.234375 C 6.28125 -8.234375 6.875 -8.085938 7.375 -7.796875 C 7.875 -7.515625 8.25 -7.085938 8.5 -6.515625 C 8.800781 -7.054688 9.234375 -7.476562 9.796875 -7.78125 C 10.367188 -8.082031 11.015625 -8.234375 11.734375 -8.234375 Z M 11.734375 -8.234375 "/></g></g></g></svg>