<?xml version="1.0" encoding="UTF-8"?>
<svg width="120px" height="30px" viewBox="0 0 120 30" xmlns="http://www.w3.org/2000/svg" xmlns:xlink="http://www.w3.org/1999/xlink" version="1.1">
 <!-- Generated by Pixelmator Pro 2.0.8 -->
 <defs>
  <text id="string" transform="matrix(1.0 0.0 0.0 1.0 3.0 2.0)" y="24.0" font-size="30" text-decoration="none" x="1.0" font-family="BanglaSangamMN-Bold, Bangla Sangam MN">I</text>
 </defs>
 <use id="I" xlink:href="#string" fill="#ed771d" fill-opacity="1" stroke="none"/>
 <defs>
  <text id="string-1" transform="matrix(1.0 0.0 0.0 1.0 6.0 2.0)" y="24.0" font-size="30" text-decoration="none" x="1.0" font-family="BanglaSangamMN-Bold, Bangla Sangam MN">N</text>
 </defs>
 <use id="N" xlink:href="#string-1" fill="#fbba26" fill-opacity="1" stroke="none"/>
 <defs>
  <text id="string-2" transform="matrix(1.0 0.0 0.0 1.0 20.0 2.0)" y="24.0" font-size="30" text-decoration="none" x="1.0" font-family="BanglaSangamMN-Bold, Bangla Sangam MN">T</text>
 </defs>
 <use id="T" xlink:href="#string-2" fill="#ed771d" fill-opacity="1" stroke="none"/>
 <defs>
  <text id="string-3" transform="matrix(1.0 0.0 0.0 1.0 41.0 2.0)" y="24.0" font-size="30" text-decoration="none" x="1.0" font-family="BanglaSangamMN-Bold, Bangla Sangam MN">L</text>
 </defs>
 <use id="L" xlink:href="#string-3" fill="#ed771d" fill-opacity="1" stroke="none"/>
 <defs>
  <text id="string-4" transform="matrix(1.0 0.0 0.0 1.0 28.0 2.0)" y="24.0" font-size="30" text-decoration="none" x="1.0" font-family="BanglaSangamMN-Bold, Bangla Sangam MN">E</text>
 </defs>
 <use id="E" xlink:href="#string-4" fill="#fbba26" fill-opacity="1" stroke="none"/>
 <defs>
  <text id="string-5" transform="matrix(1.0 0.0 0.0 1.0 20.0 2.0)" y="24.0" font-size="30" text-decoration="none" x="1.0" font-family="BanglaSangamMN-Bold, Bangla Sangam MN">T</text>
 </defs>
 <use id="T-1" xlink:href="#string-5" fill="#ed771d" fill-opacity="1" stroke="none"/>
 <defs>
  <text id="string-6" transform="matrix(1.0 0.0 0.0 1.0 49.0 2.0)" y="24.0" font-size="30" fill="#fbba26" text-decoration="none" x="1.0" font-family="BanglaSangamMN-Bold, Bangla Sangam MN">L</text>
 </defs>
 <use id="L-1" xlink:href="#string-6"/>
 <defs>
  <text id="string-7" transform="matrix(1.0 0.0 0.0 1.0 59.0 2.0)" y="24.0" font-size="30" text-decoration="none" x="1.0" font-family="BanglaSangamMN-Bold, Bangla Sangam MN">I</text>
 </defs>
 <use id="I-1" xlink:href="#string-7" fill="#ed771d" fill-opacity="1" stroke="none"/>
 <defs>
  <text id="string-8" transform="matrix(1.0 0.0 0.0 1.0 64.0 2.0)" y="24.0" font-size="30" fill="#fbba26" text-decoration="none" x="1.0" font-family="BanglaSangamMN-Bold, Bangla Sangam MN">C</text>
 </defs>
 <use id="C" xlink:href="#string-8"/>
 <defs>
  <text id="string-9" transform="matrix(1.0 0.0 0.0 1.0 82.0 2.0)" y="24.0" font-size="30" fill="#ed771d" text-decoration="none" x="1.0" font-family="BanglaSangamMN-Bold, Bangla Sangam MN">A</text>
 </defs>
 <use id="A" xlink:href="#string-9"/>
 <defs>
  <text id="string-10" transform="matrix(-1.0 1.2246467991473532e-16 -1.2246467991473532e-16 -1.0 118.0 30.0)" y="24.0" font-size="30" fill="#fbba26" text-decoration="none" x="1.0" font-family="BanglaSangamMN-Bold, Bangla Sangam MN">V</text>
 </defs>
 <use id="V" xlink:href="#string-10"/>
</svg>
